<?xml version="1.0" encoding="UTF-8"?>
<svg version="1.1" xmlns="http://www.w3.org/2000/svg" width="2938" height="1986">
<path d="M0 0 C1.90356974 -0.00977748 3.80713765 -0.01991803 5.71070373 -0.03038418 C10.87532938 -0.05752484 16.03996391 -0.0788408 21.20462132 -0.09890008 C25.64982853 -0.11687092 30.09501738 -0.1382217 34.54021008 -0.15943979 C75.95239093 -0.35599735 117.36502638 -0.46148373 158.77757593 -0.54388533 C164.92145073 -0.55615231 171.06532454 -0.56889577 177.209198 -0.58181763 C177.88795183 -0.58323461 178.56670567 -0.58465159 179.2660278 -0.58611151 C201.31136994 -0.63244828 223.35624247 -0.72361309 245.40132459 -0.83866379 C268.75295647 -0.9603105 292.10425476 -1.03396228 315.45623767 -1.05608761 C328.17028153 -1.06948551 340.8834327 -1.10521549 353.59717178 -1.19732285 C364.41050607 -1.27565859 375.22284262 -1.31025873 386.03645666 -1.28729795 C391.55158323 -1.27698248 397.06454124 -1.28775875 402.57930946 -1.35539627 C407.63064573 -1.41687587 412.67832016 -1.41802898 417.72978531 -1.37173976 C419.55376669 -1.36556393 421.37798537 -1.38127603 423.20153524 -1.421427 C437.50004011 -1.71753356 437.50004011 -1.71753356 442.5973928 3.05769134 C445.48022649 6.21563456 447.80332784 9.62192432 450.1232605 13.20773315 C451.20316865 14.63139519 452.29183663 16.04861784 453.40060425 17.44992065 C454.29094665 18.65819636 455.17773193 19.86910211 456.0607605 21.08273315 C460.49856938 27.08901508 465.07355681 32.95886693 469.76144409 38.77145386 C473.37657793 43.25869581 476.91300426 47.79893195 480.41378784 52.3757019 C483.37111262 56.23890567 486.36218437 60.07379688 489.3732605 63.89523315 C493.64433718 69.31647981 497.88963121 74.75719388 502.1232605 80.20773315 C506.27536465 85.55264195 510.4363289 90.8900584 514.6232605 96.20773315 C521.76922517 105.28557424 528.84750785 114.41609039 535.93478394 123.5397644 C541.81483681 131.10846415 547.69505226 138.67665637 553.6232605 146.20773315 C560.76910472 155.28567026 567.84750694 164.41608922 574.93478394 173.5397644 C580.81483681 181.10846415 586.69505226 188.67665637 592.6232605 196.20773315 C599.76910472 205.28567026 606.84750694 214.41608922 613.93478394 223.5397644 C620.25030273 231.66898816 626.57219185 239.79254829 632.94039917 247.88058472 C637.29396648 253.41441723 641.61229073 258.9754697 645.93185425 264.53585815 C649.48216541 269.1038734 653.0442586 273.66216856 656.6232605 278.20773315 C663.76922517 287.28557424 670.84750785 296.41609039 677.93478394 305.5397644 C683.81483681 313.10846415 689.69505226 320.67665637 695.6232605 328.20773315 C702.76910472 337.28567026 709.84750694 346.41608922 716.93478394 355.5397644 C722.81483681 363.10846415 728.69505226 370.67665637 734.6232605 378.20773315 C741.76910472 387.28567026 748.84750694 396.41608922 755.93478394 405.5397644 C762.25030273 413.66898816 768.57219185 421.79254829 774.94039917 429.88058472 C779.29396648 435.41441723 783.61229073 440.9754697 787.93185425 446.53585815 C791.48216541 451.1038734 795.0442586 455.66216856 798.6232605 460.20773315 C802.74518114 465.44399477 806.84556462 470.69665384 810.9357605 475.95773315 C811.51616089 476.70410034 812.09656128 477.45046753 812.69454956 478.2194519 C815.81896729 482.23876883 818.93963409 486.26095645 822.05685425 490.28585815 C822.69582642 491.10989136 823.33479858 491.93392456 823.99313354 492.78292847 C825.22363577 494.36991043 826.45301042 495.95776749 827.68112183 497.54660034 C828.23437134 498.25977417 828.78762085 498.972948 829.3576355 499.70773315 C829.84457886 500.33679565 830.33152222 500.96585815 830.83322144 501.61398315 C832.17820319 503.33250076 832.17820319 503.33250076 834.1232605 505.20773315 C834.75941284 504.46329956 834.75941284 504.46329956 835.40841675 503.7038269 C838.90028431 499.65940008 842.48667191 495.80265951 846.30099487 492.06271362 C847.95815016 490.37580769 849.48013259 488.64473051 851.00216675 486.8366394 C855.97994764 481.11370538 861.37752609 475.80418033 866.74752808 470.45309448 C868.55686982 468.6491123 870.36080369 466.83984651 872.16427612 465.02999878 C877.47138668 459.72014775 882.76009977 454.44712398 888.50827026 449.60836792 C890.30158476 448.05307763 891.96155584 446.40218925 893.6232605 444.70773315 C896.61198387 441.67178391 899.74032529 438.86264657 902.9670105 436.08273315 C905.32289007 434.03414222 907.6283351 431.93570314 909.9357605 429.83273315 C914.25586841 425.93409919 918.70397431 422.23269458 923.22872925 418.57492065 C925.73658684 416.52396019 928.20387486 414.43376512 930.65988159 412.32125854 C937.46858929 406.47640264 944.52113578 401.00611286 951.67404175 395.59054565 C955.39856494 392.76911085 959.08571167 389.90307181 962.76339722 387.02096558 C972.73423197 379.21007897 982.86528077 371.6370711 993.1232605 364.20773315 C994.14008911 363.47055054 994.14008911 363.47055054 995.17745972 362.71847534 C1073.12024051 306.43611099 1160.04104547 262.3697417 1412.1232605 205.20773315 C1412.79500305 205.14607971 1413.46674561 205.08442627 1414.15884399 205.02090454 C1454.63226664 201.36352315 1496.69104713 201.11454237 1537.1232605 205.20773315 C1538.25725281 205.32084839 1538.25725281 205.32084839 1539.41415405 205.43624878 C1577.41908261 209.25948992 1614.92380678 215.56214644 1652.1232605 224.20773315 C1650.03903102 216.59296859 1647.28897528 209.39875635 1644.1857605 202.14523315 C1643.70485962 201.01762573 1643.22395874 199.89001831 1642.72848511 198.72824097 C1626.08602881 160.09387141 1606.02880122 122.92233878 1578.1232605 91.20773315 C1577.60932739 90.60839966 1577.09539429 90.00906616 1576.56588745 89.39157104 C1565.07557876 76.05593432 1552.51556115 63.39814373 1538.1232605 53.20773315 C1537.54189331 52.79265503 1536.96052612 52.3775769 1536.36154175 51.94992065 C1517.72351418 38.76988381 1497.65706477 28.37641421 1475.5607605 22.39523315 C1474.8911731 22.21242798 1474.22158569 22.0296228 1473.53170776 21.84127808 C1471.07293333 21.22293962 1468.60992048 20.703905 1466.1232605 20.20773315 C1465.50552765 20.08411407 1464.8877948 19.960495 1464.25134277 19.83312988 C1450.32605724 17.13192238 1436.58905787 16.67157621 1422.4357605 16.52023315 C1420.25800697 16.48695899 1418.08027178 16.45246057 1415.90255737 16.41671753 C1410.6428956 16.33299481 1405.38326705 16.26565499 1400.1232605 16.20773315 C1400.1232605 10.92773315 1400.1232605 5.64773315 1400.1232605 0.20773315 C1595.4832605 0.20773315 1790.8432605 0.20773315 1992.1232605 0.20773315 C1992.1232605 5.48773315 1992.1232605 10.76773315 1992.1232605 16.20773315 C1990.83975708 16.22231567 1989.55625366 16.23689819 1988.2338562 16.25192261 C1983.36348822 16.31093559 1978.49353439 16.38813674 1973.62350464 16.47018433 C1971.5360091 16.50295882 1969.448435 16.5311294 1967.36080933 16.5541687 C1909.33305902 17.21119213 1860.13415581 38.7508357 1819.24191284 79.78414917 C1813.47889106 85.68469911 1808.27707689 91.8491875 1803.39279175 98.48947144 C1802.10432327 100.23336396 1800.78857868 101.95367135 1799.4670105 103.6725769 C1766.83735745 146.53909928 1747.54953857 197.78336134 1733.1232605 249.20773315 C1734.28470581 249.41785034 1735.44615112 249.62796753 1736.64279175 249.8444519 C1743.94436093 251.47603185 1750.85184151 254.32345982 1757.8107605 257.02023315 C1758.55590912 257.30740204 1759.30105774 257.59457092 1760.06878662 257.89044189 C1785.82039326 267.83018083 1810.78386923 279.20389554 1835.521698 291.4303894 C1838.622292 292.96275447 1841.73072206 294.47843007 1844.8420105 295.98898315 C1857.56941208 302.20339977 1869.88909332 309.07623089 1882.1232605 316.20773315 C1882.96821075 316.69950043 1882.96821075 316.69950043 1883.83023071 317.20120239 C1909.73734828 332.29364545 1934.84909551 348.59925623 1959.1232605 366.20773315 C1959.87575073 366.7505896 1960.62824097 367.29344604 1961.40353394 367.85275269 C1972.0237541 375.52723413 1982.34242031 383.48113766 1992.44259644 391.82687378 C1994.7101476 393.6899286 1997.00907397 395.51210651 1999.3107605 397.33273315 C2004.77355916 401.69202825 2010.09579748 406.21385156 2015.41134644 410.75021362 C2017.11548941 412.20111687 2018.82582386 413.64442526 2020.537323 415.0866394 C2028.06408324 421.45256664 2035.33598034 428.04486594 2042.506073 434.80929565 C2044.68941845 436.86886089 2046.88515556 438.9100594 2049.115448 440.91867065 C2056.80202947 447.87125496 2064.16262539 455.13881296 2071.4982605 462.45773315 C2072.02072357 462.97760803 2072.54318665 463.49748291 2073.08148193 464.03311157 C2078.39783545 469.32867891 2083.63216773 474.64698128 2088.51339722 480.35275269 C2091.39844664 483.67707867 2094.46445955 486.83226446 2097.4982605 490.02023315 C2102.59966446 495.41722546 2107.45205116 500.88683437 2112.08029175 506.6960144 C2114.20135701 509.30374856 2116.41926455 511.78824693 2118.6857605 514.27023315 C2123.06006 519.0827181 2127.11302176 524.09046325 2131.1232605 529.20773315 C2131.92119019 530.21062378 2132.71911987 531.2135144 2133.54122925 532.24679565 C2188.52983898 601.47177111 2233.22210173 678.75594447 2317.3263855 1019.3678894 C2317.33340872 1020.87554452 2317.34049553 1022.38319934 2317.34764099 1023.89085388 C2317.36704286 1028.68398466 2317.37207547 1033.47706706 2317.3732605 1038.27023315 C2317.37370235 1039.08739555 2317.37414421 1039.90455795 2317.37459946 1040.74648285 C2317.38145623 1064.92982421 2317.16377691 1088.95770994 2314.37649536 1113.00979614 C2314.11008209 1115.32211435 2313.85594205 1117.63557762 2313.60324097 1119.94943237 C2304.6390167 1201.137214 2281.59709785 1280.42101622 2204.6882019 1444.49240112 C2203.05107959 1447.33297435 2201.44850729 1450.19084445 2199.85372925 1453.0553894 C2193.42053648 1464.60177908 2186.72587638 1475.90680285 2179.54660034 1487.00509644 C2178.1744078 1489.12858205 2176.8134304 1491.258833 2175.45529175 1493.3913269 C2155.89918867 1523.99568733 2134.62449433 1553.48746616 2111.51925659 1581.51193237 C2109.50088048 1583.96377576 2107.50152643 1586.43103877 2105.4982605 1588.89523315 C2098.00124668 1598.03693007 2090.37690399 1607.02488484 2082.381073 1615.7350769 C2080.47144899 1617.82641254 2078.59994798 1619.94032179 2076.7482605 1622.08273315 C2065.48046653 1634.98490489 2053.41814095 1647.06904351 2041.29598999 1659.16195679 C2039.39049106 1661.06483985 2037.488731 1662.97143842 2035.58692551 1664.8780117 C2033.28377208 1667.18567652 2030.97678137 1669.48949755 2028.6701355 1671.79367065 C2027.8303717 1672.63545868 2026.99060791 1673.4772467 2026.12539673 1674.34454346 C2021.81915968 1678.63384556 2017.44785881 1682.78057392 2012.83250427 1686.73660278 C2010.26018443 1688.95057478 2007.79417779 1691.2695081 2005.3107605 1693.58273315 C2000.70800212 1697.83579531 1995.96579762 1701.85007098 1991.08029175 1705.77804565 C1988.2931286 1708.06815857 1985.5808899 1710.42147788 1982.87496948 1712.80587769 C1974.94851624 1719.7826414 1966.71710969 1726.24292158 1958.27609253 1732.58273315 C1956.14056201 1734.19467363 1954.01852615 1735.82274265 1951.90060425 1737.45773315 C1922.71185102 1759.98851111 1891.99074214 1780.64550662 1860.1232605 1799.20773315 C1858.99065796 1799.86757202 1858.99065796 1799.86757202 1857.83517456 1800.54074097 C1816.10627973 1824.76774358 1773.08796918 1845.72751525 1728.1232605 1863.20773315 C1727.1941687 1863.57076538 1726.2650769 1863.93379761 1725.30783081 1864.30783081 C1712.73035896 1869.20773315 1712.73035896 1869.20773315 1709.1232605 1869.20773315 C1709.1232605 1907.81773315 1709.1232605 1946.42773315 1709.1232605 1986.20773315 C1702.8532605 1986.20773315 1696.5832605 1986.20773315 1690.1232605 1986.20773315 C1683.98581719 1979.9308025 1683.98581719 1979.9308025 1682.3576355 1976.9616394 C1680.17104015 1973.19529688 1677.61521663 1969.89472209 1674.8732605 1966.52023315 C1673.9492525 1965.35134321 1673.02743759 1964.18071686 1672.1076355 1963.0085144 C1671.38930542 1962.09513306 1671.38930542 1962.09513306 1670.65646362 1961.16329956 C1667.80043522 1957.52049901 1664.96276319 1953.86341954 1662.1232605 1950.20773315 C1657.97115552 1944.86282331 1653.81006022 1939.52551254 1649.6232605 1934.20773315 C1639.99548238 1921.97146137 1630.39494196 1909.71714465 1621.1232605 1897.20773315 C1615.47766487 1897.8542211 1609.95435013 1898.760537 1604.38497925 1899.87960815 C1602.67838688 1900.21587734 1600.97167598 1900.55154539 1599.26486206 1900.88668823 C1598.37609375 1901.06164825 1597.48732544 1901.23660828 1596.57162476 1901.41687012 C1566.60645111 1907.28715323 1536.57127589 1911.73559213 1506.1232605 1914.20773315 C1504.85869019 1914.31214722 1503.59411987 1914.41656128 1502.29122925 1914.5241394 C1462.46235372 1917.66120936 1421.93285522 1917.6423312 1382.1232605 1914.20773315 C1381.38492981 1914.14456909 1380.64659912 1914.08140503 1379.88589478 1914.0163269 C1303.34925066 1907.38763249 1227.79977382 1889.9096469 1084.1232605 1830.20773315 C1082.98421265 1829.65182495 1081.84516479 1829.09591675 1080.67160034 1828.52316284 C1049.71049371 1813.38244219 1019.86494684 1796.23599905 991.1232605 1777.20773315 C989.86556875 1776.38202836 988.60775713 1775.55650614 987.349823 1774.73117065 C956.79156565 1754.60266624 927.66664526 1732.36846246 899.81906128 1708.6491394 C898.12091204 1707.205737 896.41735857 1705.76891893 894.71310425 1704.33273315 C886.65643982 1697.5172213 878.90710226 1690.42237114 871.23629761 1683.17721558 C869.67280376 1681.71994176 868.09600578 1680.27691264 866.51217651 1678.84176636 C858.86416553 1671.91149474 851.4977136 1664.73703323 844.21237183 1657.42721558 C842.29903856 1655.50847811 840.38035546 1653.59520561 838.46115112 1651.68234253 C833.01368012 1646.23782406 827.60298836 1640.81370143 822.61178589 1634.94137573 C819.9350517 1631.82386065 817.07414486 1628.87694361 814.2482605 1625.89523315 C809.43067818 1620.77270846 804.83558945 1615.55862784 800.44747925 1610.05929565 C798.20109643 1607.30322934 795.88256954 1604.63290024 793.5319519 1601.96627808 C787.17176126 1594.74389497 781.23549208 1587.28761299 775.4513855 1579.59835815 C773.19032293 1576.59525841 770.88756464 1573.63217328 768.5451355 1570.69210815 C761.52276356 1561.86457969 755.17970239 1552.93859452 749.37716675 1543.26925659 C747.62165272 1540.38304933 745.79537976 1537.54405436 743.97238159 1534.70016479 C717.34709204 1493.06893614 693.89998759 1449.34404038 673.97421265 1404.13491821 C673.15833964 1402.28717827 672.33672822 1400.44197534 671.51486206 1398.59689331 C659.99556374 1372.69125507 650.33510956 1346.13372822 641.3107605 1319.27023315 C641.04569702 1318.48575806 640.78063354 1317.70128296 640.50753784 1316.89303589 C639.76167869 1314.67860579 639.02476731 1312.46142717 638.29122925 1310.2428894 C637.9594593 1309.25942284 637.9594593 1309.25942284 637.62098694 1308.25608826 C636.56132755 1305.01098034 636.1232605 1302.67847374 636.1232605 1299.20773315 C647.40765162 1296.30944626 658.73276115 1293.70568785 670.12423706 1291.26535034 C671.86397385 1290.89059734 673.60366258 1290.51562116 675.3433075 1290.14044189 C680.0134214 1289.13402853 684.68425483 1288.13099549 689.3552866 1287.12885189 C693.26536205 1286.28967117 697.17509052 1285.44887994 701.08482814 1284.60812688 C710.30039256 1282.62646689 719.51656564 1280.64765648 728.73312378 1278.67062378 C738.23640085 1276.63203098 747.73858622 1274.58840642 757.24026704 1272.54238772 C765.41914396 1270.78140485 773.59869646 1269.0235858 781.77879882 1267.26830411 C786.65616645 1266.22168313 791.53326371 1265.17384139 796.40970612 1264.12291718 C800.98251591 1263.13756568 805.55615424 1262.15615777 810.13046837 1261.17781448 C811.8093948 1260.81803402 813.48802065 1260.45684766 815.16632271 1260.0941658 C817.45352323 1259.60013135 819.74174653 1259.11114744 822.03030396 1258.6234436 C823.31109455 1258.34841381 824.59188515 1258.07338402 825.91148758 1257.79001999 C829.1232605 1257.20773315 829.1232605 1257.20773315 833.1232605 1257.20773315 C834.13942601 1266.13943206 835.12990966 1275.07128679 835.9826355 1284.02023315 C843.78450147 1365.35272329 860.87007757 1444.15672542 1005.86032104 1709.70944214 C1007.26754956 1711.26302606 1008.66693346 1712.8237996 1010.05392456 1714.39547729 C1015.95944177 1721.067343 1022.16183187 1727.40016059 1028.47116089 1733.68600464 C1030.19034719 1735.39980548 1031.90408633 1737.11892398 1033.61740112 1738.83859253 C1039.28443002 1744.50940886 1044.99983149 1750.02585003 1051.1232605 1755.20773315 C1052.31525491 1756.25245538 1053.50536782 1757.29932829 1054.693573 1758.34835815 C1062.39835675 1765.10278155 1070.22894616 1771.62825638 1078.36495972 1777.85714722 C1080.08616511 1779.17923944 1081.79433638 1780.51686951 1083.50216675 1781.85617065 C1109.84783863 1802.2810587 1138.69058386 1819.66345296 1168.1232605 1835.20773315 C1168.97516968 1835.65971069 1169.82707886 1836.11168823 1170.70480347 1836.57736206 C1242.52675837 1874.40092185 1326.9367619 1897.00322678 1408.1232605 1898.20773315 C1409.33884644 1898.22819702 1410.55443237 1898.24866089 1411.80685425 1898.26974487 C1475.8562984 1899.24290716 1537.7822223 1889.71874705 1599.1232605 1871.20773315 C1599.1232605 1867.63235118 1595.94599577 1865.06549976 1593.7482605 1862.39523315 C1592.63657481 1861.02625992 1591.52591331 1859.6564544 1590.41622925 1858.28585815 C1589.57970825 1857.25428589 1589.57970825 1857.25428589 1588.72628784 1856.20187378 C1586.03899394 1852.85892272 1583.44106289 1849.45024397 1580.83566284 1846.04318237 C1577.87695419 1842.17915344 1574.88526475 1838.34284735 1571.8732605 1834.52023315 C1567.60218382 1829.0989865 1563.35688978 1823.65827243 1559.1232605 1818.20773315 C1554.97115634 1812.86282436 1550.8101921 1807.52540791 1546.6232605 1802.20773315 C1539.47729582 1793.12989207 1532.39901315 1783.99937592 1525.31173706 1774.8757019 C1518.99621827 1766.74647815 1512.67432914 1758.62291802 1506.30612183 1750.53488159 C1501.95255451 1745.00104908 1497.63423026 1739.43999661 1493.31466675 1733.87960815 C1489.76435558 1729.31159291 1486.2022624 1724.75329775 1482.6232605 1720.20773315 C1475.47729582 1711.12989207 1468.39901315 1701.99937592 1461.31173706 1692.8757019 C1454.99621827 1684.74647815 1448.67432914 1676.62291802 1442.30612183 1668.53488159 C1437.95255451 1663.00104908 1433.63423026 1657.43999661 1429.31466675 1651.87960815 C1425.76435558 1647.31159291 1422.2022624 1642.75329775 1418.6232605 1638.20773315 C1411.47729582 1629.12989207 1404.39901315 1619.99937592 1397.31173706 1610.8757019 C1390.99621827 1602.74647815 1384.67432914 1594.62291802 1378.30612183 1586.53488159 C1373.95255451 1581.00104908 1369.63423026 1575.43999661 1365.31466675 1569.87960815 C1361.76435558 1565.31159291 1358.2022624 1560.75329775 1354.6232605 1556.20773315 C1347.47729582 1547.12989207 1340.39901315 1537.99937592 1333.31173706 1528.8757019 C1326.99621827 1520.74647815 1320.67432914 1512.62291802 1314.30612183 1504.53488159 C1309.95255451 1499.00104908 1305.63423026 1493.43999661 1301.31466675 1487.87960815 C1297.76435558 1483.31159291 1294.2022624 1478.75329775 1290.6232605 1474.20773315 C1283.47729582 1465.12989207 1276.39901315 1455.99937592 1269.31173706 1446.8757019 C1263.43168419 1439.30700216 1257.55146874 1431.73880994 1251.6232605 1424.20773315 C1244.47741628 1415.12979604 1237.39901406 1405.99937709 1230.31173706 1396.8757019 C1223.99621827 1388.74647815 1217.67432914 1380.62291802 1211.30612183 1372.53488159 C1206.95255451 1367.00104908 1202.63423026 1361.43999661 1198.31466675 1355.87960815 C1194.76435558 1351.31159291 1191.2022624 1346.75329775 1187.6232605 1342.20773315 C1180.47729582 1333.12989207 1173.39901315 1323.99937592 1166.31173706 1314.8757019 C1159.99621827 1306.74647815 1153.67432914 1298.62291802 1147.30612183 1290.53488159 C1142.95255451 1285.00104908 1138.63423026 1279.43999661 1134.31466675 1273.87960815 C1130.76435558 1269.31159291 1127.2022624 1264.75329775 1123.6232605 1260.20773315 C1116.47729582 1251.12989207 1109.39901315 1241.99937592 1102.31173706 1232.8757019 C1095.99621827 1224.74647815 1089.67432914 1216.62291802 1083.30612183 1208.53488159 C1078.95255451 1203.00104908 1074.63423026 1197.43999661 1070.31466675 1191.87960815 C1066.76435476 1187.31159185 1063.20212373 1182.75340775 1059.6232605 1178.20773315 C1055.31982434 1172.73774171 1051.028662 1167.25827145 1046.7482605 1161.77023315 C1046.16495972 1161.0245105 1045.58165894 1160.27878784 1044.98068237 1159.51046753 C1044.42187378 1158.79310425 1043.86306519 1158.07574097 1043.287323 1157.3366394 C1042.55183228 1156.3941333 1042.55183228 1156.3941333 1041.80148315 1155.43258667 C1040.34195439 1153.49766004 1038.92479006 1151.54224066 1037.51837158 1149.56867981 C1037.06945242 1148.93906814 1036.62053326 1148.30945646 1036.15801048 1147.66076565 C1035.81654299 1147.18126493 1035.47507549 1146.7017642 1035.1232605 1146.20773315 C1016.16464306 1149.66342032 997.2480014 1153.3094308 978.34481072 1157.05522609 C974.51877713 1157.81298276 970.6923562 1158.56877906 966.86598206 1159.32481384 C960.28322982 1160.62571384 953.70069618 1161.92771475 947.11831665 1163.23049927 C936.61916626 1165.30845786 926.11954378 1167.38402487 915.61984253 1169.459198 C912.0271899 1170.16927461 908.43453909 1170.87936047 904.84188843 1171.58944702 C903.94878456 1171.76596621 903.05568069 1171.94248539 902.13551307 1172.12435365 C895.77204814 1173.38209594 889.40864181 1174.64013444 883.04525757 1175.89828491 C860.14920593 1180.42511109 837.25215784 1184.94685199 814.35372925 1189.4616394 C813.62585488 1189.60515178 812.89798052 1189.74866415 812.14804935 1189.89652538 C803.43097711 1191.6152085 794.7138408 1193.33356654 785.99667978 1195.0517993 C777.99114394 1196.62977566 769.98566567 1198.20804408 761.98019409 1199.78634644 C761.25578471 1199.92916581 760.53137533 1200.07198519 759.78501415 1200.21913242 C756.12401165 1200.9409111 752.46301021 1201.66269517 748.80200958 1202.38448334 C745.8755944 1202.96144279 742.9491773 1203.5383925 740.02275848 1204.11533356 C707.623716 1210.50278728 675.2253898 1216.89387057 642.82719952 1223.28564525 C637.49159603 1224.3382937 632.15598662 1225.39091213 626.82037354 1226.44351196 C596.88950592 1232.34821971 566.95870842 1238.25328229 537.0282526 1244.1600771 C523.62896296 1246.80443452 510.22962914 1249.44856805 496.83026791 1252.09256268 C488.88749482 1253.65986312 480.94474966 1255.22730484 473.0020752 1256.79510498 C469.98688953 1257.39025831 466.97170188 1257.98540159 463.95651245 1258.58053589 C463.222446 1258.72542611 462.48837955 1258.87031634 461.73206866 1259.01959717 C449.96209463 1261.34267432 438.19151624 1263.66267307 426.42055798 1265.98075771 C419.0499568 1267.4326417 411.68020787 1268.88874413 404.31124783 1270.34893417 C399.94007949 1271.21449296 395.56833524 1272.07711428 391.19643593 1272.93897247 C389.20759191 1273.33174471 387.21900635 1273.72582836 385.23070335 1274.12133026 C382.55924227 1274.65259205 379.88691978 1275.17927992 377.21432495 1275.70480347 C376.05647334 1275.93689892 376.05647334 1275.93689892 374.87523079 1276.17368317 C371.52894024 1276.82709625 368.55066137 1277.20773315 365.1232605 1277.20773315 C365.1232605 1269.94773315 365.1232605 1262.68773315 365.1232605 1255.20773315 C409.42498376 1246.45970694 453.72799162 1237.71821088 498.03270817 1228.98535633 C505.5535318 1227.50291931 513.07431925 1226.02029977 520.59494019 1224.53683472 C533.78997001 1221.93411186 546.98527912 1219.33283999 560.1821146 1216.73928547 C565.37176028 1215.71935717 570.56116123 1214.69822483 575.74993896 1213.67388916 C580.52397428 1212.73148712 585.29868017 1211.79256771 590.07397461 1210.85656738 C591.78654409 1210.52026607 593.49886392 1210.18269046 595.21090698 1209.84371948 C597.50581149 1209.38954612 599.80157245 1208.93999238 602.09762573 1208.4916687 C603.36855576 1208.24160568 604.63948578 1207.99154266 605.94892883 1207.73390198 C609.1232605 1207.20773315 609.1232605 1207.20773315 613.1232605 1207.20773315 C612.96244995 1206.22006958 612.8016394 1205.23240601 612.63595581 1204.21481323 C608.70569044 1179.94782107 605.30918048 1155.69756501 603.1232605 1131.20773315 C603.00466675 1129.89321167 602.886073 1128.57869019 602.7638855 1127.22433472 C599.35951068 1087.25332687 599.4572381 1046.1507365 603.1232605 1006.20773315 C603.24822593 1004.79221712 603.37305889 1003.37668939 603.49777222 1001.96115112 C607.00033201 962.88391712 613.64912842 924.27294628 623.1232605 886.20773315 C623.3091272 885.46084229 623.4949939 884.71395142 623.68649292 883.94442749 C638.14056051 826.27098387 659.60241813 768.96521227 687.70797729 716.4994812 C688.17502075 715.6039856 688.64206421 714.70848999 689.1232605 713.78585815 C689.5357605 713.01661011 689.9482605 712.24736206 690.3732605 711.45480347 C691.3166825 708.62822271 691.00449227 707.02842924 690.1232605 704.20773315 C688.24640632 701.55405156 688.24640632 701.55405156 685.8107605 698.89523315 C681.7611225 694.22715579 677.97778464 689.43159975 674.3107605 684.45773315 C670.21510765 678.9239424 665.99678436 673.52454052 661.6232605 668.20773315 C656.78841431 662.32807764 652.17133208 656.32544463 647.64279175 650.20773315 C644.09178501 645.43577659 640.4007849 640.80189832 636.6232605 636.20773315 C631.76826225 630.30191323 627.1236644 624.27576351 622.57028198 618.13522339 C618.72628066 612.96757713 614.73962433 607.93237864 610.69332886 602.92233276 C606.92426081 598.24266668 603.25802033 593.49227499 599.6232605 588.70773315 C594.97966883 582.59727047 590.24723192 576.57028887 585.43405151 570.59274292 C581.83836438 566.12090094 578.31869015 561.59701279 574.83248901 557.03952026 C571.87532022 553.17634029 568.8842659 549.34157967 565.8732605 545.52023315 C561.60218382 540.0989865 557.35688978 534.65827243 553.1232605 529.20773315 C548.97115634 523.86282436 544.8101921 518.52540791 540.6232605 513.20773315 C533.47729582 504.12989207 526.39901315 494.99937592 519.31173706 485.8757019 C512.99621827 477.74647815 506.67432914 469.62291802 500.30612183 461.53488159 C495.95255451 456.00104908 491.63423026 450.43999661 487.31466675 444.87960815 C483.76435558 440.31159291 480.2022624 435.75329775 476.6232605 431.20773315 C470.69042021 423.67097867 464.80604063 416.09675356 458.92160034 408.52218628 C455.99026685 404.7495768 453.05664022 400.97875164 450.1232605 397.20773315 C449.54890259 396.46918091 448.97454468 395.73062866 448.38278198 394.96969604 C445.41715183 391.15626851 442.45063784 387.34353352 439.4826355 383.5319519 C433.54342486 375.90313824 427.62090083 368.26266673 421.7326355 360.5944519 C417.43626652 355.00950736 413.10113077 349.45455202 408.771698 343.89523315 C406.35654644 340.79391494 403.94521513 337.68969074 401.537323 334.58273315 C395.56283293 326.87776913 389.55485905 319.20434609 383.44650269 311.60494995 C380.63459816 308.10503618 377.84794776 304.58758801 375.08639526 301.04782104 C368.76803568 292.94957692 362.24806445 285.02582173 355.69796753 277.11447144 C353.59834881 274.57214241 351.51679538 272.01528407 349.4357605 269.45773315 C345.74505417 264.93850092 341.9830407 260.48361084 338.20407104 256.03829956 C335.34420639 252.66865245 332.5304476 249.26715459 329.7482605 245.83273315 C321.82572482 236.10703972 313.52163529 226.6937577 305.099823 217.3991394 C303.25369489 215.35234519 301.43332766 213.28641759 299.6232605 211.20773315 C292.43319676 202.96224722 285.05318028 194.88346061 277.63204956 186.84591675 C276.64169061 185.7706241 275.65396699 184.69289706 274.66915894 183.61251831 C265.14049706 173.16343886 255.17437425 163.15139878 245.1857605 153.14523315 C244.16319153 152.11878189 244.16319153 152.11878189 243.1199646 151.07159424 C233.71407598 141.58414435 233.71407598 141.58414435 223.79928589 132.63864136 C220.87387063 130.14106542 218.1082542 127.4715124 215.3107605 124.83273315 C210.31915304 120.162153 205.22082263 115.71155838 199.881073 111.4382019 C197.39592317 109.42825778 194.96513933 107.36631209 192.54489136 105.27902222 C172.99417212 88.4661749 151.47726282 74.00772132 129.1232605 61.20773315 C128.39397339 60.7900769 127.66468628 60.37242065 126.91329956 59.94210815 C95.15694941 41.97066884 59.22969916 34.02229768 23.3732605 28.95773315 C22.31203979 28.80667114 21.25081909 28.65560913 20.15744019 28.49996948 C-0.4186267 25.7750392 -21.01105649 24.82604194 -41.7517395 24.89523315 C-42.89872314 24.89705597 -44.04570679 24.89887878 -45.22744751 24.90075684 C-64.91702474 24.95308465 -84.33851577 25.76359045 -103.8767395 28.20773315 C-104.54783752 28.29023315 -105.21893555 28.37273315 -105.91036987 28.45773315 C-138.13779702 32.44957764 -169.87321215 39.57371453 -200.8767395 49.20773315 C-201.99306763 49.5541687 -203.10939575 49.90060425 -204.259552 50.25753784 C-268.98850871 70.58763833 -330.07340287 103.32815757 -381.8767395 147.20773315 C-382.50596313 147.73786011 -383.13518677 148.26798706 -383.78347778 148.81417847 C-385.58916702 150.33681888 -387.39045495 151.86444422 -389.1892395 153.39523315 C-389.69100708 153.82134888 -390.19277466 154.2474646 -390.70974731 154.68649292 C-401.48063264 163.93660072 -411.62353786 173.79287867 -421.64212036 183.84274292 C-423.70031107 185.90633377 -425.7638493 187.96446991 -427.82791138 190.02218628 C-429.16351884 191.35845405 -430.49881634 192.69503172 -431.83377075 194.0319519 C-432.43808426 194.63424118 -433.04239777 195.23653046 -433.6650238 195.85707092 C-437.9311159 200.14629308 -441.93092411 204.62384232 -445.8767395 209.20773315 C-446.8261741 210.29071765 -447.77649917 211.37292319 -448.728302 212.4538269 C-455.99009303 220.7809395 -462.74519159 229.42672357 -469.39089966 238.25021362 C-470.69642127 239.97017292 -472.01871427 241.67355858 -473.35720825 243.3678894 C-533.97185233 320.43072836 -574.42684385 417.08176984 -600.8767395 586.20773315 C-600.94731567 587.20256714 -601.01789185 588.19740112 -601.09060669 589.22238159 C-606.24432175 666.2554241 -594.28292689 744.70932002 -566.8767395 821.20773315 C-566.4450647 822.40511108 -566.01338989 823.60248901 -565.56863403 824.83615112 C-552.00323636 862.0469745 -534.6265246 897.51686659 -513.8767395 931.20773315 C-513.32888794 932.10588745 -512.78103638 933.00404175 -512.21658325 933.92941284 C-504.98304335 945.7722949 -497.14027114 957.06379926 -488.8767395 968.20773315 C-487.84266496 969.61642558 -486.80880723 971.02527718 -485.775177 972.43429565 C-480.26031637 979.91084189 -474.54129408 987.13713451 -468.47439575 994.1725769 C-465.96840467 997.10062964 -463.5416527 1000.07941471 -461.1267395 1003.08273315 C-458.14193112 1006.75266659 -455.06140073 1010.15735101 -451.65139771 1013.43209839 C-449.91211854 1015.17233465 -448.31910123 1016.97554303 -446.72439575 1018.84835815 C-442.65952427 1023.52435538 -438.32994762 1027.90175647 -433.9392395 1032.27023315 C-433.17933716 1033.03400269 -432.41943481 1033.79777222 -431.63650513 1034.58468628 C-427.42790589 1038.78609747 -423.13263764 1042.82026525 -418.6255188 1046.69967651 C-416.45562827 1048.57087766 -414.35643843 1050.51375669 -412.2517395 1052.45773315 C-406.59940113 1057.55609043 -400.64217088 1062.21616069 -394.61746216 1066.86105347 C-393.00253739 1068.11041181 -391.39815257 1069.37336189 -389.79470825 1070.63742065 C-315.93471995 1128.47386849 -224.54143021 1159.83228407 -46.8767395 1159.20773315 C2.88317737 1152.92013496 50.82659473 1139.90682603 96.1232605 1118.20773315 C97.04316772 1117.77235229 97.96307495 1117.33697144 98.91085815 1116.88839722 C130.39448638 1101.93156365 159.44499616 1082.58676641 186.1232605 1060.20773315 C187.07072144 1059.44589722 188.01818237 1058.68406128 188.99435425 1057.8991394 C197.64300117 1050.83877013 205.53237739 1043.01507155 213.4357605 1035.14523315 C214.27519699 1034.31356125 214.27519699 1034.31356125 215.1315918 1033.46508789 C222.27965503 1026.36914581 228.86358137 1019.10883559 235.1232605 1011.20773315 C235.98641398 1010.1799859 236.85481877 1009.15657867 237.7326355 1008.1413269 C297.38885038 938.57869677 328.16931399 843.33553785 330.3732605 736.77023315 C330.37393524 735.8356427 330.37460999 734.90105225 330.37530518 733.93814087 C330.31132016 677.59425123 319.17675001 621.90375894 294.1232605 571.20773315 C293.74347046 570.43042847 293.36368042 569.65312378 292.97238159 568.8522644 C284.81140021 552.28844049 274.58446032 536.67270468 263.1232605 522.20773315 C262.40911987 521.30152222 261.69497925 520.39531128 260.959198 519.4616394 C248.30218957 503.69628438 234.14572573 488.58213386 218.1232605 476.20773315 C216.83526256 475.19110692 215.54752052 474.17415644 214.25997925 473.1569519 C199.10334436 461.2766639 183.13121101 451.21963815 166.1232605 442.20773315 C165.46003784 441.85614136 164.79681519 441.50454956 164.11349487 441.14230347 C124.20409035 420.18485235 79.11494443 407.20912067 33.8420105 407.00460815 C32.79831299 406.99759384 31.75461548 406.99057953 30.67929077 406.98335266 C27.32723631 406.96593749 23.97535855 406.95949975 20.6232605 406.95773315 C19.47776733 406.95705841 18.33227417 406.95638367 17.15206909 406.95568848 C0.27291367 406.97150012 -16.19579743 407.40983336 -32.8767395 410.20773315 C-33.95036743 410.3793396 -35.02399536 410.55094604 -36.13015747 410.72775269 C-72.72846929 416.66562581 -108.02089507 427.1183321 -141.8767395 442.20773315 C-142.72268677 442.58252808 -143.56863403 442.957323 -144.44021606 443.34347534 C-165.39796875 452.71039202 -185.49803604 464.30417936 -203.1267395 479.08273315 C-203.65187134 479.522948 -204.17700317 479.96316284 -204.7180481 480.41671753 C-207.82362461 483.09699834 -210.41163144 485.93266102 -212.8767395 489.20773315 C-216.67262817 488.66546335 -218.34885943 487.00645752 -220.8767395 484.20773315 C-217.58463045 476.33923074 -209.2901108 470.42180539 -202.92752075 464.9772644 C-200.60107368 462.96987293 -198.33481264 460.90306677 -196.0642395 458.83273315 C-190.81492974 454.10197222 -185.38050005 449.63776264 -179.8767395 445.20773315 C-178.74360253 444.28234908 -177.61080501 443.35654922 -176.478302 442.4303894 C-106.18565789 385.21101461 -20.72985136 343.98231156 70.1232605 335.20773315 C71.0518689 335.11347046 71.98047729 335.01920776 72.93722534 334.92208862 C83.48281439 333.97082442 94.04308723 333.96420112 104.6232605 333.95773315 C105.61880951 333.95705841 106.61435852 333.95638367 107.64007568 333.95568848 C124.31135771 333.97356375 140.61060027 334.73691389 157.1232605 337.20773315 C158.25860229 337.37402222 159.39394409 337.54031128 160.56369019 337.7116394 C197.80084174 343.3394205 233.28451216 354.78900815 267.1232605 371.20773315 C267.86962769 371.56577026 268.61599487 371.92380737 269.38497925 372.29269409 C274.00863422 374.51560514 278.57674504 376.83144446 283.1232605 379.20773315 C283.85867065 379.58800659 284.59408081 379.96828003 285.35177612 380.3600769 C312.84840019 394.66837837 338.66279782 412.95666219 361.54122925 433.87179565 C362.96422967 435.15916971 364.39376706 436.43984178 365.85006714 437.68942261 C371.55504295 442.58952923 376.88146641 447.81695583 382.1857605 453.14523315 C383.04492065 454.00052612 383.90408081 454.85581909 384.78927612 455.73703003 C389.77581784 460.7311906 394.56458134 465.82070278 399.1232605 471.20773315 C399.66506958 471.84283813 400.20687866 472.47794312 400.7651062 473.1322937 C418.95753802 494.58733742 434.41125661 517.67285979 448.1232605 542.20773315 C448.53930542 542.9465271 448.95535034 543.68532104 449.38400269 544.44650269 C494.1050941 624.43732083 508.16001402 723.36130821 480.2482605 848.52023315 C466.1449879 896.99365312 444.87709448 942.6587453 416.1232605 984.20773315 C415.4721228 985.15036011 415.4721228 985.15036011 414.80783081 986.11203003 C405.33574402 999.75591216 394.95284022 1012.6243064 384.1232605 1025.20773315 C383.50966675 1025.92316284 382.896073 1026.63859253 382.2638855 1027.3757019 C380.5670198 1029.33517777 378.84970136 1031.27426726 377.1232605 1033.20773315 C376.40783081 1034.01597534 375.69240112 1034.82421753 374.95529175 1035.6569519 C368.81723195 1042.48019047 362.4154026 1049.02101509 355.9357605 1055.52023315 C355.09247192 1056.36811401 354.24918335 1057.21599487 353.38034058 1058.08956909 C349.77081652 1061.69023673 346.14851633 1065.25450139 342.32247925 1068.6257019 C341.72859077 1069.15496934 341.13470229 1069.68423677 340.52281719 1070.22954261 C338.1232605 1072.20773315 338.1232605 1072.20773315 334.92486376 1074.35290921 C329.83855249 1077.89595559 325.84152997 1080.94154964 323.92287266 1086.99502921 C323.3185619 1091.51863347 323.44035456 1096.03200992 323.54649353 1100.58392334 C323.53938315 1102.33819458 323.52656184 1104.0924503 323.50855821 1105.84664357 C323.47572532 1110.64705606 323.52358928 1115.44373753 323.58508933 1120.24374223 C323.63725903 1125.42891352 323.61404257 1130.61382478 323.60020447 1135.79916382 C323.58480185 1145.95407543 323.63811631 1156.10752186 323.71384401 1166.26211689 C323.7991663 1178.11022352 323.81229379 1189.95808373 323.82159238 1201.80645384 C323.84028665 1222.97325009 323.91845266 1244.13939827 324.03268433 1265.30587769 C324.14313967 1285.79155519 324.22123671 1306.27696278 324.25827026 1326.76290894 C324.26055486 1328.02205639 324.26283946 1329.28120385 324.26519329 1330.57850729 C324.2742813 1335.64154966 324.28323129 1340.70459224 324.2919764 1345.76763522 C324.33049564 1367.71303483 324.39182982 1389.65838325 324.45995578 1411.60370904 C324.46726669 1413.96067809 324.47449159 1416.31764741 324.48163071 1418.67461699 C324.52614133 1433.31283942 324.58255131 1447.95092914 324.65923119 1462.58901978 C324.68023265 1466.65338807 324.69709526 1470.7177366 324.70989227 1474.78213882 C324.80105427 1502.61314182 325.27643169 1530.30053862 329.3107605 1557.89523315 C329.41552704 1558.63034119 329.52029358 1559.36544922 329.62823486 1560.12283325 C342.65335423 1650.98404076 376.970668 1743.07742583 450.75216675 1829.8366394 C452.1232605 1831.20773315 452.1232605 1831.20773315 454.0607605 1833.70773315 C456.41353879 1836.55958563 459.0047954 1838.81547572 461.81466675 1841.20773315 C464.31473859 1843.37361604 466.71120199 1845.63188802 469.1232605 1847.89523315 C519.63083303 1893.75444393 579.1878788 1904.94625362 645.1232605 1906.20773315 C645.1232605 1911.15773315 645.1232605 1916.10773315 645.1232605 1921.20773315 C430.2932605 1921.20773315 215.4632605 1921.20773315 -5.8767395 1921.20773315 C-5.8767395 1916.25773315 -5.8767395 1911.30773315 -5.8767395 1906.20773315 C-3.66599731 1906.15874878 -1.45525513 1906.1097644 0.82247925 1906.05929565 C60.37273502 1904.65704824 110.71303244 1890.35478114 156.1232605 1850.20773315 C156.93536987 1849.50648315 157.74747925 1848.80523315 158.584198 1848.08273315 C170.38884542 1837.72915535 181.43966778 1826.5672755 191.1232605 1814.20773315 C192.13422121 1812.98229538 193.14881444 1811.75984899 194.16622925 1810.5397644 C201.72824398 1801.44515144 208.63898628 1792.09667906 215.1232605 1782.20773315 C215.66595581 1781.38531128 216.20865112 1780.5628894 216.76779175 1779.71554565 C225.10308097 1767.03386409 232.71579712 1754.09216021 239.80636597 1740.67697144 C240.97107716 1738.49308397 242.16398364 1736.32976982 243.37716675 1734.1725769 C255.49982075 1712.39561987 264.87307824 1688.68018703 273.1232605 1665.20773315 C273.51432983 1664.1094519 273.90539917 1663.01117065 274.30831909 1661.87960815 C288.09274396 1622.92291276 297.76989149 1582.71128188 302.4982605 1541.64523315 C302.57816223 1540.95563507 302.65806396 1540.26603699 302.74038696 1539.55554199 C305.41817906 1515.94599828 305.29030904 1492.28592665 305.32386911 1468.5619669 C305.33195952 1463.59430163 305.34562675 1458.62665111 305.35858154 1453.65899658 C305.38022323 1445.07386493 305.39841195 1436.4887317 305.41418648 1427.90358734 C305.43699828 1415.49124666 305.46512472 1403.07892239 305.49450576 1390.66659573 C305.54204397 1370.52341444 305.58534498 1350.3802264 305.62594604 1330.23703003 C305.66537137 1310.68168615 305.7068142 1291.12634825 305.75094604 1271.5710144 C305.75503245 1269.7598158 305.75503245 1269.7598158 305.75920141 1267.91202733 C305.77288205 1261.85390701 305.7866021 1255.79578679 305.80034173 1249.73766661 C305.91408989 1199.56103463 306.0209466 1149.38438967 306.1232605 1099.20773315 C305.56682358 1099.59975922 305.01038666 1099.99178528 304.43708801 1100.39569092 C301.86367467 1102.20721425 299.2884016 1104.01607678 296.71310425 1105.82492065 C295.83827393 1106.44133423 294.9634436 1107.0577478 294.06210327 1107.69284058 C219.42075663 1160.07454792 131.73171043 1190.88606814 41.6857605 1202.45773315 C40.51658081 1202.60903687 39.34740112 1202.76034058 38.14279175 1202.91622925 C15.05142218 1205.70496588 -8.00698552 1206.5841042 -31.2517395 1206.52023315 C-32.61624132 1206.51860653 -33.98074328 1206.51710236 -35.34524536 1206.51571655 C-56.97849872 1206.48153654 -78.38088602 1205.71126629 -99.8767395 1203.20773315 C-101.77166138 1202.99890503 -101.77166138 1202.99890503 -103.7048645 1202.78585815 C-185.75984036 1193.59297704 -267.03686558 1167.19791084 -428.4704895 1061.40304565 C-430.50962062 1059.54266954 -432.574511 1057.72486251 -434.6579895 1055.9147644 C-438.81460627 1052.28692507 -442.85924106 1048.55097832 -446.8767395 1044.77023315 C-447.57661987 1044.11208618 -448.27650024 1043.45393921 -448.99758911 1042.77584839 C-455.56125704 1036.58715974 -461.95688091 1030.37554795 -467.837677 1023.52804565 C-469.91216052 1021.16742648 -472.04127304 1018.86847148 -474.18630981 1016.57223511 C-480.02324749 1010.31928363 -485.53980442 1003.89681119 -490.8767395 997.20773315 C-491.79765135 996.07804107 -492.71958061 994.94917784 -493.6423645 993.8210144 C-511.15036503 972.32520951 -527.08472172 949.25950219 -540.8767395 925.20773315 C-541.22188599 924.61218628 -541.56703247 924.0166394 -541.92263794 923.40304565 C-581.34311548 855.2706615 -606.72459225 780.25236512 -621.0798645 642.60617065 C-621.08689016 641.24868743 -621.09397695 639.89120453 -621.10112 638.53372192 C-621.12051994 634.21672081 -621.1255549 629.89977347 -621.1267395 625.58273315 C-621.12718136 624.84605156 -621.12762321 624.10936996 -621.12807846 623.35036469 C-621.13513766 600.89411115 -620.8325644 578.59585294 -618.1267395 556.27481079 C-617.868092 554.13623295 -617.62002479 551.99658895 -617.37283325 549.85665894 C-607.57069001 466.20031743 -581.59166438 383.12649535 -534.26443481 298.57443237 C-533.00386702 296.42454775 -531.77395108 294.26109282 -530.556427 292.0866394 C-515.60541815 265.63309445 -497.64522176 240.29652382 -478.28250122 216.91769409 C-476.36301714 214.58284405 -474.49540517 212.20834376 -472.6267395 209.83273315 C-469.24592351 205.59069877 -465.66393604 201.5628241 -462.009552 197.5553894 C-460.20399779 195.56795702 -458.43937805 193.55619835 -456.6892395 191.52023315 C-444.92978272 178.05375845 -432.58197911 164.53431657 -418.91970825 152.9694519 C-416.7717606 151.11720642 -414.69107357 149.19980436 -412.61306763 147.26974487 C-406.56523446 141.65853018 -400.35073739 136.32560086 -393.8767395 131.20773315 C-393.23494751 130.6987146 -392.59315552 130.18969604 -391.93191528 129.66525269 C-322.52366148 74.75112257 -244.08042018 37.03740533 0 0 Z M1426.1232605 224.20773315 C1424.87013062 224.3469519 1423.61700073 224.48617065 1422.32589722 224.62960815 C1361.406933 231.62229914 1302.37201514 249.85789614 1247.1232605 276.20773315 C1245.73759888 276.86660522 1245.73759888 276.86660522 1244.32394409 277.53878784 C1211.97413842 293.02765664 1181.54593889 312.3730928 1153.1232605 334.20773315 C1152.58137085 334.62345581 1152.0394812 335.03917847 1151.48117065 335.46749878 C1139.77571595 344.47426074 1128.54619902 354.00158852 1117.62350464 363.94284058 C1116.06316437 365.35630378 1114.49577535 366.76207075 1112.91793823 368.15597534 C1106.40506448 373.92521242 1100.20986262 379.96681721 1094.07223511 386.12838745 C1092.43086254 387.77514719 1090.7841723 389.41645411 1089.13693237 391.05734253 C1083.58793873 396.60288992 1078.21420611 402.23475058 1073.1232605 408.20773315 C1071.710025 409.75254575 1070.29385641 411.2946864 1068.8732605 412.83273315 C1064.32603599 417.8723813 1060.1580362 423.1554418 1056.00216675 428.5163269 C1054.09939039 430.96886624 1052.17124568 433.39682961 1050.21310425 435.8053894 C995.15514458 503.53187481 954.26067982 585.01328267 923.1232605 666.20773315 C922.86542786 666.87895203 922.60759521 667.5501709 922.34194946 668.24172974 C913.89660791 690.25895122 906.08704469 712.46278233 898.86288452 734.91000366 C898.37094105 736.43828425 897.87786337 737.96620022 897.38363647 739.4937439 C866.28000007 835.64765172 848.85260184 935.59270773 831.1232605 1164.20773315 C840.18463921 1162.88757708 849.16211652 1161.29237553 858.14230347 1159.50558472 C859.49287342 1159.23893062 860.84349139 1158.97251961 862.19415283 1158.70632935 C865.8280593 1157.98946776 869.46130216 1157.26929449 873.09443426 1156.54852009 C876.94186404 1155.78587986 880.78993502 1155.02648855 884.63793945 1154.26675415 C891.94272896 1152.82404757 899.2469883 1151.37867609 906.55103886 1149.93223357 C917.16233926 1147.83094953 927.77435545 1145.73328626 938.38646126 1143.63607407 C939.17745968 1143.47975203 939.9684581 1143.32342999 940.78342617 1143.16237092 C942.36646659 1142.84952183 943.94950848 1142.53668021 945.53255188 1142.2238462 C950.06542867 1141.32798251 954.59813402 1140.43125853 959.13066828 1139.53366351 C961.98237803 1138.96903165 964.83420278 1138.40498174 967.68602967 1137.84094191 C969.74972929 1137.43248437 971.8132439 1137.02310131 973.87675285 1136.61368179 C980.9129798 1135.22009333 987.95380588 1133.85628462 995.00320435 1132.53085327 C997.15612707 1132.12359103 999.30897777 1131.71594966 1001.46182275 1131.30827665 C1003.490235 1130.92664523 1005.5199432 1130.55255794 1007.54980278 1130.17871475 C1008.76474482 1129.94882732 1009.97968685 1129.7189399 1011.23144531 1129.48208618 C1012.30040102 1129.28345852 1013.36935673 1129.08483086 1014.47070503 1128.88018417 C1017.32627982 1128.31304981 1017.32627982 1128.31304981 1020.1232605 1126.20773315 C1019.49161987 1125.40593628 1018.85997925 1124.6041394 1018.209198 1123.77804565 C1012.82553945 1116.93801747 1007.46329886 1110.08187757 1002.1232605 1103.20773315 C997.97112204 1097.86285165 993.81026373 1092.52535151 989.6232605 1087.20773315 C984.82832579 1081.11802379 980.06967351 1075.00052398 975.31466675 1068.87960815 C971.76435558 1064.31159291 968.2022624 1059.75329775 964.6232605 1055.20773315 C957.47729582 1046.12989207 950.39901315 1036.99937592 943.31173706 1027.8757019 C937.00359465 1019.75597289 930.69043844 1011.6408045 924.32809448 1003.56344604 C919.73368921 997.72519994 915.17968025 991.85558153 910.62911987 985.98312378 C909.77157104 984.87807495 909.77157104 984.87807495 908.896698 983.7507019 C908.12978638 982.76106445 908.12978638 982.76106445 907.34738159 981.75143433 C906.20899483 980.25523395 906.20899483 980.25523395 905.1232605 979.20773315 C905.26049619 969.4024447 906.99190408 959.66676726 908.6232605 950.02023315 C908.75230774 949.25207275 908.88135498 948.48391235 909.01431274 947.69247437 C923.42933718 862.48732915 948.2735163 778.09910499 981.1232605 698.20773315 C981.7832605 698.20773315 982.4432605 698.20773315 983.1232605 698.20773315 C985.03799745 700.39816799 986.840277 702.60084051 988.6232605 704.89523315 C989.16007446 705.57642212 989.69688843 706.25761108 990.24996948 706.95944214 C994.42261096 712.2676642 998.53981858 717.61899795 1002.64279175 722.98117065 C1005.19246841 726.3073627 1007.77951413 729.60335079 1010.3732605 732.89523315 C1014.57922988 738.23513548 1018.76415419 743.59093999 1022.9357605 748.95773315 C1023.5223645 749.71239868 1024.10896851 750.46706421 1024.71334839 751.24459839 C1027.12091286 754.3426614 1029.52783502 757.44122315 1031.93478394 760.5397644 C1037.81483681 768.10846415 1043.69505226 775.67665637 1049.6232605 783.20773315 C1056.76910472 792.28567026 1063.84750694 801.41608922 1070.93478394 810.5397644 C1076.81483681 818.10846415 1082.69505226 825.67665637 1088.6232605 833.20773315 C1095.76910472 842.28567026 1102.84750694 851.41608922 1109.93478394 860.5397644 C1116.25030273 868.66898816 1122.57219185 876.79254829 1128.94039917 884.88058472 C1133.29396648 890.41441723 1137.61229073 895.9754697 1141.93185425 901.53585815 C1145.48216541 906.1038734 1149.0442586 910.66216856 1152.6232605 915.20773315 C1159.76922517 924.28557424 1166.84750785 933.41609039 1173.93478394 942.5397644 C1179.81483681 950.10846415 1185.69505226 957.67665637 1191.6232605 965.20773315 C1198.76910472 974.28567026 1205.84750694 983.41608922 1212.93478394 992.5397644 C1218.81483681 1000.10846415 1224.69505226 1007.67665637 1230.6232605 1015.20773315 C1237.76910472 1024.28567026 1244.84750694 1033.41608922 1251.93478394 1042.5397644 C1258.25030273 1050.66898816 1264.57219185 1058.79254829 1270.94039917 1066.88058472 C1275.29396648 1072.41441723 1279.61229073 1077.9754697 1283.93185425 1083.53585815 C1287.48216541 1088.1038734 1291.0442586 1092.66216856 1294.6232605 1097.20773315 C1301.76922517 1106.28557424 1308.84750785 1115.41609039 1315.93478394 1124.5397644 C1321.81483681 1132.10846415 1327.69505226 1139.67665637 1333.6232605 1147.20773315 C1340.76910472 1156.28567026 1347.84750694 1165.41608922 1354.93478394 1174.5397644 C1360.81483681 1182.10846415 1366.69505226 1189.67665637 1372.6232605 1197.20773315 C1379.76910472 1206.28567026 1386.84750694 1215.41608922 1393.93478394 1224.5397644 C1400.25030273 1232.66898816 1406.57219185 1240.79254829 1412.94039917 1248.88058472 C1417.29396648 1254.41441723 1421.61229073 1259.9754697 1425.93185425 1265.53585815 C1429.48216541 1270.1038734 1433.0442586 1274.66216856 1436.6232605 1279.20773315 C1443.76922517 1288.28557424 1450.84750785 1297.41609039 1457.93478394 1306.5397644 C1463.81483681 1314.10846415 1469.69505226 1321.67665637 1475.6232605 1329.20773315 C1482.76910472 1338.28567026 1489.84750694 1347.41608922 1496.93478394 1356.5397644 C1503.25030273 1364.66898816 1509.57219185 1372.79254829 1515.94039917 1380.88058472 C1520.29396648 1386.41441723 1524.61229073 1391.9754697 1528.93185425 1397.53585815 C1532.48216541 1402.1038734 1536.0442586 1406.66216856 1539.6232605 1411.20773315 C1546.76922517 1420.28557424 1553.84750785 1429.41609039 1560.93478394 1438.5397644 C1566.81483681 1446.10846415 1572.69505226 1453.67665637 1578.6232605 1461.20773315 C1585.76910472 1470.28567026 1592.84750694 1479.41608922 1599.93478394 1488.5397644 C1605.81483681 1496.10846415 1611.69505226 1503.67665637 1617.6232605 1511.20773315 C1624.76910472 1520.28567026 1631.84750694 1529.41608922 1638.93478394 1538.5397644 C1645.25030273 1546.66898816 1651.57219185 1554.79254829 1657.94039917 1562.88058472 C1661.68636208 1567.64208944 1665.40627701 1572.42358652 1669.1232605 1577.20773315 C1670.88963829 1579.47906618 1672.65627993 1581.75019363 1674.42306519 1584.02120972 C1675.53381621 1585.44968274 1676.64387282 1586.87869607 1677.75314331 1588.30831909 C1679.24890466 1590.23517324 1680.74813076 1592.15927913 1682.2482605 1594.08273315 C1682.68525269 1594.64734253 1683.12224487 1595.2119519 1683.57247925 1595.79367065 C1685.92597803 1598.80378822 1688.40044645 1601.53219765 1691.1232605 1604.20773315 C1691.13425821 1567.89775606 1691.14480187 1531.58777884 1691.15499878 1495.27780151 C1691.15529817 1494.21190934 1691.15529817 1494.21190934 1691.15560361 1493.12448399 C1691.17698804 1416.94817861 1691.19543163 1340.77187318 1691.20794678 1264.5955658 C1691.20822568 1262.90250784 1691.20850458 1261.20944987 1691.20878349 1259.51639191 C1691.2146295 1223.9746831 1691.22006286 1188.43297423 1691.22501985 1152.89126528 C1691.22751055 1135.03613692 1691.23008049 1117.18100858 1691.23272538 1099.32588024 C1691.23312388 1096.63258706 1691.23352012 1093.93929387 1691.23391626 1091.24600069 C1691.24003254 1049.79808365 1691.2478432 1008.35016778 1691.2605896 966.9022522 C1691.2608634 966.01182852 1691.26113719 965.12140483 1691.26141929 964.20399862 C1691.26584375 949.84873685 1691.27041108 935.49347513 1691.27499738 921.13821341 C1691.28821337 879.76492836 1691.30036407 838.39164422 1691.30554008 797.01835728 C1691.30564715 796.16662395 1691.30575423 795.31489063 1691.30586454 794.4373472 C1691.30819667 775.73475143 1691.3099861 757.03215565 1691.31126246 738.32955979 C1691.31178567 730.8029998 1691.31238691 723.27643982 1691.31301498 715.74987984 C1691.31308184 714.92615706 1691.31314869 714.10243429 1691.31321757 713.25375021 C1691.31540644 686.76198109 1691.32393485 660.27021871 1691.33582491 633.7784523 C1691.34778397 607.06780174 1691.35345088 580.35715771 1691.35050847 553.6465044 C1691.35010238 549.94586691 1691.34976759 546.24522941 1691.34947586 542.5445919 C1691.34938622 541.45655399 1691.34938622 541.45655399 1691.34929477 540.34653552 C1691.34853681 528.91305337 1691.35447294 517.47958513 1691.36328022 506.04610677 C1691.37182462 494.77193817 1691.37293547 483.49778717 1691.36692413 472.22361529 C1691.36392111 466.20548088 1691.36396575 460.18739248 1691.37302686 454.16926312 C1691.41524736 424.40558315 1691.18350496 394.78646346 1687.4357605 365.20773315 C1687.3536734 364.55205353 1687.2715863 363.8963739 1687.18701172 363.2208252 C1683.88121191 337.0704857 1678.90327552 311.3341921 1672.4982605 285.77023315 C1672.2685556 284.85228973 1672.03885071 283.93434631 1671.80218506 282.98858643 C1670.50540387 277.84045259 1669.15739905 272.70941447 1667.75741577 267.58840942 C1667.13115755 265.2373794 1666.55891868 262.87773653 1665.99142456 260.51193237 C1664.35247107 253.42541571 1664.35247107 253.42541571 1660.4147644 247.50631714 C1658.00072073 246.32198697 1655.75384767 245.78156657 1653.1232605 245.20773315 C1651.19286977 244.63327236 1649.26259993 244.05838402 1647.33401489 243.47789001 C1643.53302197 242.35835377 1639.70276687 241.34954412 1635.8732605 240.33273315 C1635.05547119 240.11396515 1634.23768188 239.89519714 1633.39511108 239.6697998 C1565.79555526 221.63782942 1495.70373536 216.26874616 1426.1232605 224.20773315 Z M1726.1232605 274.20773315 C1712.88949308 338.80480938 1708.7898048 402.42487628 1708.87616175 468.29107033 C1708.88510745 475.45115584 1708.8818829 482.61122597 1708.87856098 489.7713145 C1708.87268681 503.14254525 1708.87610464 516.51375835 1708.88484955 529.88498688 C1708.89365254 543.40518585 1708.89798935 556.9253757 1708.89704514 570.44557762 C1708.89698775 571.30433082 1708.89693037 572.16308402 1708.89687124 573.04786005 C1708.89655843 577.42780739 1708.89617454 581.80775472 1708.89576557 586.18770205 C1708.89296161 617.76784923 1708.89977373 649.34798831 1708.91180038 680.92813301 C1708.92367113 712.17395633 1708.93135572 743.41977617 1708.93350601 774.66560173 C1708.93357484 775.63827733 1708.93364366 776.61095294 1708.93371457 777.61310356 C1708.93434102 786.49783257 1708.9349164 795.38256158 1708.93543052 804.2672906 C1708.93670882 826.3474109 1708.93862716 848.42753112 1708.94098091 870.50765133 C1708.94108755 871.51280089 1708.94119418 872.51795046 1708.94130405 873.5535591 C1708.94653899 922.37196022 1708.95915077 971.19035905 1708.97238159 1020.00875854 C1708.97696518 1036.93622842 1708.98151603 1053.8636983 1708.9859314 1070.79116821 C1708.98620529 1071.84110341 1708.98647919 1072.89103861 1708.98676139 1073.97279002 C1708.99946469 1122.84053761 1709.00690561 1171.70828559 1709.01300099 1220.5760344 C1709.01339711 1223.75107798 1709.0137955 1226.92612157 1709.01419435 1230.10116515 C1709.01683406 1251.14348102 1709.01938333 1272.18579691 1709.02187206 1293.2281128 C1709.02682424 1335.09213826 1709.03230757 1376.95616366 1709.03815616 1418.82018901 C1709.03843464 1420.81357333 1709.03871275 1422.80695766 1709.03899048 1424.80034199 C1709.05148634 1514.46421634 1709.07015902 1604.12808903 1709.09152222 1693.79196167 C1709.09172209 1694.63100893 1709.09192196 1695.47005619 1709.09212789 1696.33452913 C1709.10212748 1738.2922639 1709.1124803 1780.24999858 1709.1232605 1822.20773315 C1711.32944285 1820.96022921 1713.53400766 1819.71000112 1715.73776245 1818.45822144 C1716.35381599 1818.11024002 1716.96986954 1817.76225861 1717.60459137 1817.4037323 C1723.71225572 1813.92918678 1729.52453501 1810.06757776 1735.3107605 1806.08273315 C1736.38084351 1805.34990112 1737.45092651 1804.61706909 1738.55343628 1803.86203003 C1752.1458904 1794.50468566 1765.52591401 1784.87864885 1778.1232605 1774.20773315 C1779.18931525 1773.31538598 1780.25574165 1772.42348267 1781.32247925 1771.5319519 C1787.18415088 1766.61832858 1792.95934713 1761.628322 1798.61154175 1756.47335815 C1800.6606227 1754.62504252 1802.73402164 1752.81763002 1804.82296753 1751.0151062 C1808.84798445 1747.49480977 1812.66583855 1743.81039218 1816.43966675 1740.0241394 C1817.09982285 1739.36494003 1817.75997894 1738.70574066 1818.44013977 1738.02656555 C1819.82361556 1736.64376481 1821.20585133 1735.2597224 1822.58688354 1733.8744812 C1824.68057719 1731.77542973 1826.77955924 1729.68177376 1828.87911987 1727.58859253 C1830.23295621 1726.2340953 1831.58648225 1724.87928784 1832.93966675 1723.5241394 C1833.55652847 1722.90930191 1834.1733902 1722.29446442 1834.8089447 1721.66099548 C1839.10955596 1717.33757356 1843.15094798 1712.83320344 1847.1232605 1708.20773315 C1848.0733587 1707.11361601 1849.02380418 1706.01980018 1849.974823 1704.92648315 C1861.81351402 1691.21919189 1873.07301219 1677.23704861 1883.53683472 1662.44699097 C1885.09009124 1660.25455193 1886.65416645 1658.0702305 1888.22091675 1655.88742065 C1895.16189173 1646.18453925 1901.75765531 1636.29661685 1908.1232605 1626.20773315 C1908.63501831 1625.3982019 1909.14677612 1624.58867065 1909.67404175 1623.75460815 C1917.85598887 1610.77497427 1925.65420951 1597.60973352 1933.1232605 1584.20773315 C1933.85633423 1582.89820679 1933.85633423 1582.89820679 1934.60421753 1581.56222534 C1976.83869362 1505.8304872 2008.07252655 1424.24965822 2082.7482605 981.58273315 C2082.76899628 980.70851715 2082.78973206 979.83430115 2082.81109619 978.93359375 C2084.88884247 888.16091117 2077.87724326 797.0474168 1930.54708862 431.9357605 C1929.26262173 430.37686875 1927.99647113 428.80292876 1926.7326355 427.2272644 C1922.2158333 421.59750915 1917.48199352 416.23484772 1912.54684448 410.97262573 C1909.97645977 408.23126199 1907.47365115 405.45651477 1905.03341675 402.59835815 C1900.38747546 397.26278495 1895.36295286 392.29788084 1890.35348511 387.30758667 C1888.68899772 385.64845995 1887.02992603 383.98405264 1885.37130737 382.31906128 C1879.79325542 376.73757046 1874.13247798 371.32716412 1868.1232605 366.20773315 C1866.5784479 364.79449765 1865.03630725 363.37832906 1863.4982605 361.95773315 C1858.45861236 357.41050865 1853.17555185 353.24250886 1847.81466675 349.0866394 C1845.36212741 347.18386305 1842.93416404 345.25571834 1840.52560425 343.2975769 C1808.74760409 317.46486232 1773.39962908 296.46554418 1736.9357605 277.95773315 C1736.18689575 277.57439819 1735.43803101 277.19106323 1734.66647339 276.79611206 C1730.59612721 274.74748601 1730.59612721 274.74748601 1726.1232605 274.20773315 Z " fill="#000000" transform="translate(620.8767395019531,-0.207733154296875)"/>
</svg>
